# xmcd CD database file
#
# Track frame offsets:
#	150
#	10340
#	34802
#	56696
#	69506
#	95599
#	111313
#	126100
#	148346
#	165213
#
# Disc length: 2476 seconds
#
# Revision: 0
# Processed by: cddbd v1.5.2PL0 Copyright (c) Steve Scherf et al.
# Submitted via: CDex 1.70beta2
#
DISCID=8a09aa0a
DTITLE=SWING HOLIC - SWING HOLIC
DYEAR=2008
DGENRE=Jazz
TTITLE0=9 o'clock @ bar "EASTSIDE"
TTITLE1=The Wonderland
TTITLE2=Swingin' Drunk Drinkin'
TTITLE3=Eternal Brightness
TTITLE4=Rainy Day, Rainy Sky
TTITLE5=Graveyard On Bossa
TTITLE6=平成河童大系 8bit Jz mix
TTITLE7=A DELUSION -迷妄- Another Take
TTITLE8=Wings of butterflies
TTITLE9=Life is but A sweet Game…
EXTD=YEAR: 2008
EXTT0=
EXTT1=
EXTT2=
EXTT3=
EXTT4=
EXTT5=
EXTT6=
EXTT7=
EXTT8=
EXTT9=
PLAYORDER=
